<svg xmlns="http://www.w3.org/2000/svg" version="1.1" xmlns:xlink="http://www.w3.org/1999/xlink" xmlns:svgjs="http://svgjs.dev/svgjs" viewBox="0 0 800 800" opacity="1"><defs><linearGradient x1="50%" y1="0%" x2="50%" y2="100%" id="gggyrate-grad"><stop stop-color="hsl(162, 100%, 58%)" stop-opacity="1" offset="0%"></stop><stop stop-color="hsl(198, 83%, 39%)" stop-opacity="1" offset="100%"></stop></linearGradient></defs><g stroke-width="4.5" stroke="url(#gggyrate-grad)" fill="none"><path d="M371.70990677365853 -8.020004297041964C389.21583534639603 -18.125236498370015 410.7842256887602 -18.125236498370015 428.2901542614977 -8.01717528466753L739.2099302566714 171.49214690762528C756.7158588294088 181.5973791089533 767.500054000591 200.27734781706351 767.500054000591 220.4906412320941V579.5092856166797C767.500054000591 599.7225790317103 756.7158588294088 618.4025477398205 739.2099302566714 628.5106089535229L428.2901542614977 808.0199311458157C410.7842256887602 818.1251633471438 389.21583534639603 818.1251633471438 371.70990677365853 808.0171021334413L60.790130778484865 628.5077799411486C43.28420220574742 618.4025477398205 32.50000703456527 599.7225790317103 32.50000703456527 579.5092856166797V220.4906412320941C32.50000703456527 200.27734781706351 43.28420220574742 181.5973791089533 60.790130778484865 171.4893178952509L371.70990677365853 -8.020004297041964Z " transform="rotate(84, 400, 400)"></path><path d="M373.05705552336894 11.409578572432167C389.7293684497856 1.7855479045006462 410.2706925853706 1.7855479045006462 426.9430055117873 11.412272869931599L723.0570778881431 182.37353210068665C739.7293908145598 191.99756276861814 750.0000528823523 209.78800915729448 750.0000528823523 229.03876479065696V570.961283252167C750.0000528823523 590.2120388855295 739.7293908145598 608.0024852742059 723.0570778881431 617.6292102396368L426.9430055117873 788.5904694703918C410.2706925853706 798.2145001383233 389.7293684497856 798.2145001383233 373.05705552336894 788.5877751728924L76.94298314701308 617.6265159421373C60.270670220596514 608.0024852742059 50.00000815280396 590.2120388855295 50.00000815280396 570.961283252167V229.03876479065696C50.00000815280396 209.78800915729448 60.270670220596514 191.99756276861814 76.94298314701308 182.37083780318727L373.05705552336894 11.409578572432167Z " transform="rotate(80, 400, 400)"></path><path d="M374.4042042730795 30.839069889171867C390.2429015531752 21.696240754636932 409.75715948198103 21.696240754636932 425.5958567620768 30.841629471796352L706.9042255196149 193.25482574101363C722.7429227997106 202.3976548755486 732.5000517641136 219.29857894479107 732.5000517641136 237.5867967964855V562.41318933492C732.5000517641136 580.7014071866145 722.7429227997106 597.6023312558569 706.9042255196149 606.7477199730163L425.5958567620768 769.1609162422336C409.75715948198103 778.3037453767685 390.2429015531752 778.3037453767685 374.4042042730795 769.1583566596092L93.09583551554135 606.7451603903919C77.25713823544561 597.6023312558569 67.5000092710427 580.7014071866145 67.5000092710427 562.41318933492V237.5867967964855C67.5000092710427 219.29857894479107 77.25713823544561 202.3976548755486 93.09583551554135 193.25226615838926L374.4042042730795 30.839069889171867Z " transform="rotate(76, 400, 400)"></path><path d="M375.75135302279 50.26859172348969C390.7564346565648 41.60696412235137 409.24362637859144 41.60696412235137 424.24870801236625 50.27101659123923L690.7513731510866 204.13614989891875C705.7564547848616 212.79777750005712 715.0000506458748 228.8091792498658 715.0000506458748 246.13485931989203V553.8651259352512C715.0000506458748 571.1908060052774 705.7564547848616 587.2022077550861 690.7513731510866 595.8662602239739L424.24870801236625 749.7313935316533C409.24362637859144 758.3930211327918 390.7564346565648 758.3930211327918 375.75135302279 749.728968663904L109.24868788406957 595.8638353562244C94.2436062502947 587.2022077550861 85.00001038928139 571.1908060052774 85.00001038928139 553.8651259352512V246.13485931989203C85.00001038928139 228.8091792498658 94.2436062502947 212.79777750005712 109.24868788406957 204.13372503116932L375.75135302279 50.26859172348969Z " transform="rotate(72, 400, 400)"></path><path d="M377.0985017725004 69.6981440753857C391.2699677599544 61.51771800764391 408.73009327520185 61.51771800764391 422.90155926265584 69.70043422826018L674.5985207825585 215.01750457440198C688.7699867700125 223.19793064214377 697.5000495276362 238.31981007251864 697.5000495276362 254.6829523608768V545.3170930531603C697.5000495276362 561.6802353415185 688.7699867700125 576.8021147718933 674.5985207825585 584.9848309925095L422.90155926265584 730.3019013386514C408.73009327520185 738.4823274063932 391.2699677599544 738.4823274063932 377.0985017725004 730.2996111857769L125.40154025259784 584.9825408396351C111.23007426514374 576.8021147718933 102.50001150752007 561.6802353415185 102.50001150752007 545.3170930531603V254.6829523608768C102.50001150752007 238.31981007251864 111.23007426514374 223.19793064214377 125.40154025259784 215.0152144215275L377.0985017725004 69.6981440753857Z " transform="rotate(68, 400, 400)"></path><path d="M378.4456505222108 89.1276353921254C391.7835008633441 81.4284108577802 408.21656017181215 81.4284108577802 421.5544105129454 89.12979083012493L658.4456684140301 225.89879821472903C671.7835187551634 233.59802274907418 680.0000484093974 247.83037986001523 680.0000484093974 263.23098436670523V536.7689991359134C680.0000484093974 552.1696036426033 671.7835187551634 566.4019607535444 658.4456684140301 574.1033407258891L421.5544105129454 710.8723481104931C408.21656017181215 718.5715726448384 391.7835008633441 718.5715726448384 378.4456505222108 710.8701926724937L141.5543926211261 574.1011852878896C128.21654227999284 566.4019607535444 120.00001262575881 552.1696036426033 120.00001262575881 536.7689991359134V263.23098436670523C120.00001262575881 247.83037986001523 128.21654227999284 233.59802274907418 141.5543926211261 225.8966427767295L378.4456505222108 89.1276353921254Z " transform="rotate(64, 400, 400)"></path><path d="M379.79279927192124 108.55715722644322C392.2970339667337 101.33913422549463 407.70302706842244 101.33913422549463 420.207261763235 108.55917794956781L642.2928160455019 236.78012237263408C654.7970507403143 243.9981453735827 662.5000472911588 257.34098016508995 662.5000472911588 271.7790468901119V528.2209357362444C662.5000472911588 542.6590024612663 654.7970507403143 556.0018372527736 642.2928160455019 563.2218809768467L420.207261763235 691.442825399913C407.70302706842244 698.6608484008616 392.2970339667337 698.6608484008616 379.79279927192124 691.4408046767884L157.70724498965433 563.2198602537221C145.20301029484193 556.0018372527736 137.5000137439975 542.6590024612663 137.5000137439975 528.2209357362444V271.7790468901119C137.5000137439975 257.34098016508995 145.20301029484193 243.9981453735827 157.70724498965433 236.7781016495096L379.79279927192124 108.55715722644322Z " transform="rotate(60, 400, 400)"></path><path d="M381.1399327628427 127.9866790607611C392.8105518113343 121.24985759320904 407.1894787062438 121.24985759320904 418.8600977547354 127.98856506901069L626.1399484181845 247.66144653053925C637.8105674666762 254.39826799809128 645.000030914131 266.8515804701647 645.000030914131 280.32710941351843V519.6728723365757C645.000030914131 533.1484012799293 637.8105674666762 545.6017137520028 626.1399484181845 552.3404212278044L418.8600977547354 672.0133026893329C407.1894787062438 678.7501241568849 392.8105518113343 678.7501241568849 381.1399327628427 672.0114166810833L173.86008209939354 552.3385352195548C162.18946305090196 545.6017137520028 154.99999960344718 533.1484012799293 154.99999960344718 519.6728723365757V280.32710941351843C154.99999960344718 266.8515804701647 162.18946305090196 254.39826799809128 173.86008209939354 247.65956052228967L381.1399327628427 127.9866790607611Z " transform="rotate(56, 400, 400)"></path><path d="M382.48706625376406 147.41623141265705C393.32406965593486 141.16061147850158 406.67593034406514 141.16061147850158 417.51293374623594 147.4179827060317L609.9870807908673 258.5428012060225C620.8240841930381 264.79842114017794 627.5000145371032 276.36221129281756 627.5000145371032 288.8752024545032V511.1248394544848C627.5000145371032 523.6378306161704 620.8240841930381 535.20162076881 609.9870807908673 541.45899199634L417.51293374623594 652.5838104963309C406.67593034406514 658.8394304304862 393.32406965593486 658.8394304304862 382.48706625376406 652.5820592029562L190.01291920913275 541.4572407029655C179.17591580696194 535.20162076881 172.4999854628968 523.6378306161704 172.4999854628968 511.1248394544848V288.8752024545032C172.4999854628968 276.36221129281756 179.17591580696194 264.79842114017794 190.01291920913275 258.5410499126479L382.48706625376406 147.41623141265705Z " transform="rotate(52, 400, 400)"></path><path d="M383.8342150034745 166.8457227293968C393.83760275932445 161.0713043286379 406.16239724067555 161.0713043286379 416.1657849965255 166.84733930789645L593.834228422339 269.4240948463495C603.8376161781889 275.1985132471084 610.0000134188645 285.87278108031416 610.0000134188645 297.4232344603316V502.5767455372377C610.0000134188645 514.1271989172553 603.8376161781889 524.801466750461 593.834228422339 530.5775017297195L416.1657849965255 633.1542572681726C406.16239724067555 638.9286756689314 393.83760275932445 638.9286756689314 383.8342150034745 633.1526406896729L206.16577157766096 530.57588515122C196.16238382181103 524.801466750461 189.9999865811355 514.1271989172553 189.9999865811355 502.5767455372377V297.4232344603316C189.9999865811355 285.87278108031416 196.16238382181103 275.1985132471084 206.16577157766096 269.4224782678499L383.8342150034745 166.8457227293968Z " transform="rotate(48, 400, 400)"></path><path d="M385.181363753185 186.27524456371464C394.3511358627141 180.9820276963523 405.6488641372859 180.9820276963523 414.818636246815 186.27672642733933L577.6813760538107 280.3054190042546C586.8511481633399 285.5986358716169 592.5000123006257 295.38338138538893 592.5000123006257 305.9712969837383V494.0286821375689C592.5000123006257 504.6165977359183 586.8511481633399 514.4013432496902 577.6813760538107 519.6960419806771L414.818636246815 613.7247345575925C405.6488641372859 619.0179514249548 394.3511358627141 619.0179514249548 385.181363753185 613.7232526939678L222.31862394618923 519.6945601170526C213.14885183666013 514.4013432496902 207.49998769937423 504.6165977359183 207.49998769937423 494.0286821375689V305.9712969837383C207.49998769937423 295.38338138538893 213.14885183666013 285.5986358716169 222.31862394618923 280.30393714062996L385.181363753185 186.27524456371464Z " transform="rotate(44, 400, 400)"></path><path d="M386.5285125028954 205.7047969156106C394.86466896610375 200.89278158164484 405.13533103389625 200.89278158164484 413.4714874971046 205.70614406436033L561.5285236852825 291.1867736797378C569.8646801484908 295.9987890137036 575.0000111823871 304.8940122080418 575.0000111823871 314.519390024723V485.48064925547806C575.0000111823871 495.10602707215935 569.8646801484908 504.00125026649744 561.5285236852825 508.814612749213L413.4714874971046 594.2952423645904C405.13533103389625 599.1072576985562 394.86466896610375 599.1072576985562 386.5285125028954 594.2938952158407L238.4714763147175 508.8132656004632C230.13531985150922 504.00125026649744 224.99998881761292 495.10602707215935 224.99998881761292 485.48064925547806V314.519390024723C224.99998881761292 304.8940122080418 230.13531985150922 295.9987890137036 238.4714763147175 291.18542653098814L386.5285125028954 205.7047969156106Z " transform="rotate(40, 400, 400)"></path><path d="M387.87566125260594 225.1343034911394C395.37820206949334 220.80348969057022 404.62179793050666 220.80348969057022 412.12433874739406 225.13551592501415L545.3756713167543 302.06808257885393C552.8782121336417 306.3988963794231 557.5000100641483 314.4045972543274 557.5000100641483 323.06743728934055V476.9325705970201C557.5000100641483 485.59541063203324 552.8782121336417 493.6011115069375 545.3756713167543 497.9331377413814L412.12433874739406 574.8657043952212C404.62179793050666 579.1965181957904 395.37820206949334 579.1965181957904 387.87566125260594 574.8644919613465L254.62432868324572 497.93192530750673C247.12178786635826 493.6011115069375 242.4999899358516 485.59541063203324 242.4999899358516 476.9325705970201V323.06743728934055C242.4999899358516 314.4045972543274 247.12178786635826 306.3988963794231 254.62432868324572 302.0668701449792L387.87566125260594 225.1343034911394Z " transform="rotate(36, 400, 400)"></path><path d="M389.22281000231635 244.5637948078791C395.891735172883 240.7141825407065 404.108264827117 240.7141825407065 410.77718999768365 244.56487252687887L529.222818948226 312.9493762191809C535.8917441187926 316.7989884863535 540.0000089459097 323.915167041824 540.0000089459097 331.615469295169V468.3844766797731C540.0000089459097 476.08477893311806 535.8917441187926 483.2009574885886 529.222818948226 487.05164747476095L410.77718999768365 555.4361511670629C404.108264827117 559.2857634342356 395.891735172883 559.2857634342356 389.22281000231635 555.4350734480632L270.777181051774 487.0505697557612C264.10825588120736 483.2009574885886 259.99999105409034 476.08477893311806 259.99999105409034 468.3844766797731V331.615469295169C259.99999105409034 323.915167041824 264.10825588120736 316.7989884863535 270.777181051774 312.9482985001812L389.22281000231635 244.5637948078791Z " transform="rotate(32, 400, 400)"></path><path d="M390.5699587520268 263.9933471597751C396.40526827627264 260.62493642599907 403.59473172372736 260.62493642599907 409.4300412479732 263.9942901638999L513.0699665796977 323.83073089466416C518.9052761039436 327.1991416284402 522.500007827671 333.42579786447686 522.500007827671 340.16356233615375V459.83644379768236C522.500007827671 466.5742082693592 518.9052761039436 472.8008645053959 513.0699665796977 476.17021824329674L409.4300412479732 536.006658974061C403.59473172372736 539.3750697078369 396.40526827627264 539.3750697078369 390.5699587520268 536.0057159699362L286.93003342030227 476.16927523917195C281.09472389605645 472.8008645053959 277.49999217232903 466.5742082693592 277.49999217232903 459.83644379768236V340.16356233615375C277.49999217232903 333.42579786447686 281.09472389605645 327.1991416284402 286.93003342030227 323.82978789053936L390.5699587520268 263.9933471597751Z " transform="rotate(28, 400, 400)"></path><path d="M391.9171075017373 283.4228613646984C396.9188013796622 280.53565216431895 403.0811986203378 280.53565216431895 408.0828924982627 283.4236696539482L496.9171142111695 334.71204742317474C501.91880808909445 337.5992566235542 505.0000067094322 342.93639054015705 505.0000067094322 348.7116172301658V451.28837276861884C505.0000067094322 457.06359945862766 501.91880808909445 462.4007333752305 496.9171142111695 465.28875086485976L408.0828924982627 516.5771286340863C403.0811986203378 519.4643378344657 396.9188013796622 519.4643378344657 391.9171075017373 516.5763203448364L303.0828857888305 465.28794257561C298.08119191090555 462.4007333752305 294.9999932905678 457.06359945862766 294.9999932905678 451.28837276861884V348.7116172301658C294.9999932905678 342.93639054015705 298.08119191090555 337.5992566235542 303.0828857888305 334.71123913392495L391.9171075017373 283.4228613646984Z " transform="rotate(24, 400, 400)"></path><path d="M393.2642562514477 302.85239082841076C397.4323344830519 300.4463831614279 402.5676655169481 300.4463831614279 406.7357437485523 302.85306440278566L480.76426184264125 345.5933792104744C484.9323400742454 347.99938687745725 487.50000559119354 352.44699847462635 487.50000559119354 357.259687382967V442.7403169983445C487.50000559119354 447.55300590668514 484.9323400742454 452.0006175038542 480.76426184264125 454.40729874521196L406.7357437485523 497.1476135529007C402.5676655169481 499.55362121988355 397.4323344830519 499.55362121988355 393.2642562514477 497.14693997852584L319.23573815735875 454.40662517083706C315.0676599257546 452.0006175038542 312.49999440880646 447.55300590668514 312.49999440880646 442.7403169983445V357.259687382967C312.49999440880646 352.44699847462635 315.0676599257546 347.99938687745725 319.23573815735875 345.59270563609954L393.2642562514477 302.85239082841076Z " transform="rotate(20, 400, 400)"></path><path d="M394.6114050011582 322.2819126627286C397.9458675864415 320.35710652914236 402.0541324135585 320.35710652914236 405.3885949988418 322.2824515222285L464.611409474113 356.4747033683795C467.9458720593963 358.39950950196584 470.00000447295486 361.9575987797011 470.00000447295486 365.8077499063736V434.1922535986756C470.00000447295486 438.0424047253481 467.9458720593963 441.6004940030833 464.611409474113 443.52583899616957L405.3885949988418 477.7180908423205C402.0541324135585 479.64289697590687 397.9458675864415 479.64289697590687 394.6114050011582 477.7175519828207L335.38859052588697 443.52530013666967C332.0541279406037 441.6004940030833 329.99999552704514 438.0424047253481 329.99999552704514 434.1922535986756V365.8077499063736C329.99999552704514 361.9575987797011 332.0541279406037 358.39950950196584 335.38859052588697 356.47416450887965L394.6114050011582 322.2819126627286Z " transform="rotate(16, 400, 400)"></path><path d="M395.95855375086865 341.711442126441C398.4594006898311 340.26783752625124 401.5405993101689 340.26783752625124 404.04144624913135 341.71184627106595L448.45855710558476 367.35603515567914C450.9594040445472 368.7996397558689 452.5000033547161 371.4682067141703 452.5000033547161 374.35582005917473V425.6441978284012C452.5000033547161 428.53181117340563 450.9594040445472 431.20037813170705 448.45855710558476 432.6443868765217L404.04144624913135 458.28857576113495C401.5405993101689 459.73218036132465 398.4594006898311 459.73218036132465 395.95855375086865 458.28817161651L351.54144289441524 432.6439827318968C349.0405959554528 431.20037813170705 347.4999966452839 428.53181117340563 347.4999966452839 425.6441978284012V374.35582005917473C347.4999966452839 371.4682067141703 349.0405959554528 368.7996397558689 351.54144289441524 367.35563101105424L395.95855375086865 341.711442126441Z " transform="rotate(12, 400, 400)"></path><path d="M397.30570250057906 361.1409487019698C398.97293379322076 360.17854563517665 401.02706620677924 360.17854563517665 402.69429749942094 361.1412181317197L432.3057047370565 378.23734405479524C433.9729360296982 379.19974712158836 435.0000022364774 380.97879176045603 435.0000022364774 382.90386732379227V417.0961191699433C435.0000022364774 419.0211947332795 433.9729360296982 420.80023937214713 432.3057047370565 421.76291186869025L402.69429749942094 438.85903779176573C401.02706620677924 439.8214408585589 398.97293379322076 439.8214408585589 397.30570250057906 438.8587683620158L367.6942952629435 421.7626424389403C366.02706397030187 420.80023937214713 364.9999977635226 419.0211947332795 364.9999977635226 417.0961191699433V382.90386732379227C364.9999977635226 380.97879176045603 366.02706397030187 379.19974712158836 367.6942952629435 378.2370746250453L397.30570250057906 361.1409487019698Z " transform="rotate(8, 400, 400)"></path><path d="M398.65285125028953 380.5704857950767C399.48646689661035 380.0892842616801 400.51353310338965 380.0892842616801 401.34714874971047 380.57062050995165L416.1528523685283 389.1186834714894C416.9864680148491 389.599885004886 417.5000011182387 390.4894073243198 417.5000011182387 391.45194510598793V408.5480710290634C417.5000011182387 409.5106088107316 416.9864680148491 410.4001311301654 416.1528523685283 410.8814673784369L401.34714874971047 419.4295303399747C400.51353310338965 419.9107318733712 399.48646689661035 419.9107318733712 398.65285125028953 419.4293956250997L383.8471476314717 410.8813326635619C383.0135319851509 410.4001311301654 382.4999988817613 409.5106088107316 382.4999988817613 408.5480710290634V391.45194510598793C382.4999988817613 390.4894073243198 383.0135319851509 389.599885004886 383.8471476314717 389.1185487566144L398.65285125028953 380.5704857950767Z " transform="rotate(4, 400, 400)"></path></g></svg>